<?xml version="1.0" standalone="no"?><!DOCTYPE svg PUBLIC "-//W3C//DTD SVG 1.1//EN" "http://www.w3.org/Graphics/SVG/1.1/DTD/svg11.dtd"><svg t="1565858613826" class="icon" viewBox="0 0 1024 1024" version="1.1" xmlns="http://www.w3.org/2000/svg" p-id="1524" xmlns:xlink="http://www.w3.org/1999/xlink" width="200" height="200"><defs><style type="text/css"></style></defs><path d="M221.013333 185.898667A213.333333 213.333333 0 0 1 422.485333 42.666667H874.24a42.666667 42.666667 0 0 1 35.968 65.664l-208.170667 325.461333h137.898667a42.666667 42.666667 0 0 1 31.189333 71.765333l-381.098666 408.064A213.333333 213.333333 0 0 1 334.122667 981.333333H166.485333a42.666667 42.666667 0 0 1-39.893333-57.770666l112.810667-297.813334H128a42.666667 42.666667 0 0 1-40.277333-56.661333l133.290666-383.146667z m50.645334 354.56l29.738666-79.061334a42.666667 42.666667 0 1 1 79.872 30.08l-40.149333 106.666667L228.266667 896h105.856a128 128 0 0 0 93.568-40.618667l314.026666-336.256h-117.632a42.666667 42.666667 0 0 1-35.925333-65.706666L796.330667 128H422.485333A128 128 0 0 0 301.653333 213.930667l-113.578666 326.528h83.626666z" fill="#75C82B" p-id="1525"></path></svg>